<svg xmlns="http://www.w3.org/2000/svg" viewBox="0 0 256 256" width="100%" height="100%" stroke="currentColor" fill="none"><path fill="none" stroke-linecap="round" stroke-linejoin="round" stroke-width="7" d="M121.1 79.52q-1.605.03-3.24.03c-31.48 0-57-9.63-57-21.5s25.52-21.5 57-21.5c16.96 0 32.19 2.79 42.63 7.23M117.86 107.56c-2.17 0-4.32-.05-6.43-.14M111.43 107.42c-28.45-1.2-50.57-10.31-50.57-21.36M86.87 90.1c-6.17-1.51-11.52-3.46-15.73-5.73M86.87 140.1c-6.17-1.51-11.52-3.46-15.73-5.73M86.87 190.1c-6.17-1.51-11.52-3.46-15.73-5.73"></path><path fill="none" stroke-linecap="round" stroke-linejoin="round" stroke-width="7" d="M127.83 129.23c-3.24.22-6.57.33-9.97.33-31.48 0-57-9.63-57-21.5 0-3.97 2.85-7.68 7.82-10.87M174.59 138.19c-1.28 4.91-6.94 9.33-15.49 12.71M117.86 157.56c-31.48 0-57-9.63-57-21.5 0-2.63 1.25-5.15 3.55-7.49M119.82 157.54c-.65 0-1.3.01-1.96.01"></path><path fill="none" stroke-linecap="round" stroke-linejoin="round" stroke-width="7" d="M167.61 146.55c4.62 3.11 7.25 6.69 7.25 10.5 0 11.87-25.52 21.5-57 21.5s-57-9.63-57-21.5c0-3.82 2.64-7.4 7.26-10.51M174.86 186.06c0 11.87-25.52 21.5-57 21.5s-57-9.63-57-21.5M174.86 157.06v27.58M61.02 59.63v27.43M61.02 111.63v24.85M61.02 181.5v5.06M61.02 159.63v21.87"></path><path fill="none" stroke-linecap="round" stroke-linejoin="round" stroke-width="7" d="M145.86 56.56h47.05l-11.23 30.68 25.13.44-79.95 81.88 22-69h-25z"></path></svg>